<svg width="24" height="24" viewBox="0 0 24 24" fill="none" xmlns="http://www.w3.org/2000/svg">
<path d="M20.925 13.17C20.97 12.795 21 12.405 21 12C21 11.595 20.97 11.205 20.91 10.83L23.445 8.85C23.67 8.67 23.73 8.34 23.595 8.085L21.195 3.93C21.045 3.66 20.73 3.57 20.46 3.66L17.475 4.86C16.845 4.38 16.185 3.99 15.45 3.69L15 0.51C14.955 0.21 14.7 0 14.4 0H9.60001C9.30001 0 9.06001 0.21 9.01501 0.51L8.56501 3.69C7.83001 3.99 7.15501 4.395 6.54001 4.86L3.55501 3.66C3.28501 3.555 2.97001 3.66 2.82001 3.93L0.420011 8.085C0.270011 8.355 0.330011 8.67 0.570011 8.85L3.10501 10.83C3.04501 11.205 3.00001 11.61 3.00001 12C3.00001 12.39 3.03001 12.795 3.09001 13.17L0.555011 15.15C0.330011 15.33 0.270011 15.66 0.405011 15.915L2.80501 20.07C2.95501 20.34 3.27001 20.43 3.54001 20.34L6.52501 19.14C7.15501 19.62 7.81501 20.01 8.55001 20.31L9.00001 23.49C9.06001 23.79 9.30001 24 9.60001 24H14.4C14.7 24 14.955 23.79 14.985 23.49L15.435 20.31C16.17 20.01 16.845 19.605 17.46 19.14L20.445 20.34C20.715 20.445 21.03 20.34 21.18 20.07L23.58 15.915C23.73 15.645 23.67 15.33 23.43 15.15L20.925 13.17ZM12 16.5C9.52501 16.5 7.50001 14.475 7.50001 12C7.50001 9.525 9.52501 7.5 12 7.5C14.475 7.5 16.5 9.525 16.5 12C16.5 14.475 14.475 16.5 12 16.5Z" fill="white"/>
</svg>
