<svg width="157" height="43" viewBox="0 0 157 43" fill="none" xmlns="http://www.w3.org/2000/svg">
<g filter="url(#filter0_d)">
<rect x="4" width="149" height="35" rx="8" fill="#FF4040"/>
</g>
<path d="M31.245 12.485C32.805 12.485 34 12.765 34.83 13.325C35.66 13.875 36.075 14.735 36.075 15.905C36.075 16.635 35.905 17.23 35.565 17.69C35.235 18.14 34.755 18.495 34.125 18.755C34.335 19.015 34.555 19.315 34.785 19.655C35.015 19.985 35.24 20.335 35.46 20.705C35.69 21.065 35.91 21.445 36.12 21.845C36.33 22.235 36.525 22.62 36.705 23H34.08C33.89 22.66 33.695 22.315 33.495 21.965C33.305 21.615 33.105 21.275 32.895 20.945C32.695 20.615 32.495 20.305 32.295 20.015C32.095 19.715 31.895 19.445 31.695 19.205H30.54V23H28.2V12.755C28.71 12.655 29.235 12.585 29.775 12.545C30.325 12.505 30.815 12.485 31.245 12.485ZM31.38 14.48C31.21 14.48 31.055 14.485 30.915 14.495C30.785 14.505 30.66 14.515 30.54 14.525V17.345H31.2C32.08 17.345 32.71 17.235 33.09 17.015C33.47 16.795 33.66 16.42 33.66 15.89C33.66 15.38 33.465 15.02 33.075 14.81C32.695 14.59 32.13 14.48 31.38 14.48ZM37.299 19.115C37.299 18.415 37.404 17.805 37.614 17.285C37.834 16.755 38.119 16.315 38.469 15.965C38.819 15.615 39.219 15.35 39.669 15.17C40.129 14.99 40.599 14.9 41.079 14.9C42.199 14.9 43.084 15.245 43.734 15.935C44.384 16.615 44.709 17.62 44.709 18.95C44.709 19.08 44.704 19.225 44.694 19.385C44.684 19.535 44.674 19.67 44.664 19.79H39.594C39.644 20.25 39.859 20.615 40.239 20.885C40.619 21.155 41.129 21.29 41.769 21.29C42.179 21.29 42.579 21.255 42.969 21.185C43.369 21.105 43.694 21.01 43.944 20.9L44.244 22.715C44.124 22.775 43.964 22.835 43.764 22.895C43.564 22.955 43.339 23.005 43.089 23.045C42.849 23.095 42.589 23.135 42.309 23.165C42.029 23.195 41.749 23.21 41.469 23.21C40.759 23.21 40.139 23.105 39.609 22.895C39.089 22.685 38.654 22.4 38.304 22.04C37.964 21.67 37.709 21.235 37.539 20.735C37.379 20.235 37.299 19.695 37.299 19.115ZM42.549 18.26C42.539 18.07 42.504 17.885 42.444 17.705C42.394 17.525 42.309 17.365 42.189 17.225C42.079 17.085 41.934 16.97 41.754 16.88C41.584 16.79 41.369 16.745 41.109 16.745C40.859 16.745 40.644 16.79 40.464 16.88C40.284 16.96 40.134 17.07 40.014 17.21C39.894 17.35 39.799 17.515 39.729 17.705C39.669 17.885 39.624 18.07 39.594 18.26H42.549ZM49.8538 11.36C50.2738 11.36 50.6588 11.405 51.0088 11.495C51.3588 11.575 51.6288 11.655 51.8188 11.735L51.3838 13.52C51.1838 13.43 50.9638 13.365 50.7238 13.325C50.4938 13.275 50.2788 13.25 50.0788 13.25C49.8088 13.25 49.5788 13.29 49.3888 13.37C49.2088 13.44 49.0638 13.54 48.9538 13.67C48.8538 13.8 48.7788 13.955 48.7288 14.135C48.6888 14.315 48.6688 14.51 48.6688 14.72V15.11H51.4288V16.97H48.6688V23H46.4338V14.69C46.4338 13.67 46.7188 12.86 47.2888 12.26C47.8688 11.66 48.7238 11.36 49.8538 11.36ZM57.5169 17.09C57.3169 17.04 57.0819 16.99 56.8119 16.94C56.5419 16.88 56.2519 16.85 55.9419 16.85C55.8019 16.85 55.6319 16.865 55.4319 16.895C55.2419 16.915 55.0969 16.94 54.9969 16.97V23H52.7619V15.53C53.1619 15.39 53.6319 15.26 54.1719 15.14C54.7219 15.01 55.3319 14.945 56.0019 14.945C56.1219 14.945 56.2669 14.955 56.4369 14.975C56.6069 14.985 56.7769 15.005 56.9469 15.035C57.1169 15.055 57.2869 15.085 57.4569 15.125C57.6269 15.155 57.7719 15.195 57.8919 15.245L57.5169 17.09ZM63.845 17.09C63.645 17.04 63.41 16.99 63.14 16.94C62.87 16.88 62.58 16.85 62.27 16.85C62.13 16.85 61.96 16.865 61.76 16.895C61.57 16.915 61.425 16.94 61.325 16.97V23H59.09V15.53C59.49 15.39 59.96 15.26 60.5 15.14C61.05 15.01 61.66 14.945 62.33 14.945C62.45 14.945 62.595 14.955 62.765 14.975C62.935 14.985 63.105 15.005 63.275 15.035C63.445 15.055 63.615 15.085 63.785 15.125C63.955 15.155 64.1 15.195 64.22 15.245L63.845 17.09ZM64.8967 19.115C64.8967 18.415 65.0017 17.805 65.2117 17.285C65.4317 16.755 65.7167 16.315 66.0667 15.965C66.4167 15.615 66.8167 15.35 67.2667 15.17C67.7267 14.99 68.1967 14.9 68.6767 14.9C69.7967 14.9 70.6817 15.245 71.3317 15.935C71.9817 16.615 72.3067 17.62 72.3067 18.95C72.3067 19.08 72.3017 19.225 72.2917 19.385C72.2817 19.535 72.2717 19.67 72.2617 19.79H67.1917C67.2417 20.25 67.4567 20.615 67.8367 20.885C68.2167 21.155 68.7267 21.29 69.3667 21.29C69.7767 21.29 70.1767 21.255 70.5667 21.185C70.9667 21.105 71.2917 21.01 71.5417 20.9L71.8417 22.715C71.7217 22.775 71.5617 22.835 71.3617 22.895C71.1617 22.955 70.9367 23.005 70.6867 23.045C70.4467 23.095 70.1867 23.135 69.9067 23.165C69.6267 23.195 69.3467 23.21 69.0667 23.21C68.3567 23.21 67.7367 23.105 67.2067 22.895C66.6867 22.685 66.2517 22.4 65.9017 22.04C65.5617 21.67 65.3067 21.235 65.1367 20.735C64.9767 20.235 64.8967 19.695 64.8967 19.115ZM70.1467 18.26C70.1367 18.07 70.1017 17.885 70.0417 17.705C69.9917 17.525 69.9067 17.365 69.7867 17.225C69.6767 17.085 69.5317 16.97 69.3517 16.88C69.1817 16.79 68.9667 16.745 68.7067 16.745C68.4567 16.745 68.2417 16.79 68.0617 16.88C67.8817 16.96 67.7317 17.07 67.6117 17.21C67.4917 17.35 67.3967 17.515 67.3267 17.705C67.2667 17.885 67.2217 18.07 67.1917 18.26H70.1467ZM76.2964 21.395C76.7064 21.395 76.9964 21.355 77.1664 21.275C77.3364 21.195 77.4214 21.04 77.4214 20.81C77.4214 20.63 77.3114 20.475 77.0914 20.345C76.8714 20.205 76.5364 20.05 76.0864 19.88C75.7364 19.75 75.4164 19.615 75.1264 19.475C74.8464 19.335 74.6064 19.17 74.4064 18.98C74.2064 18.78 74.0514 18.545 73.9414 18.275C73.8314 18.005 73.7764 17.68 73.7764 17.3C73.7764 16.56 74.0514 15.975 74.6014 15.545C75.1514 15.115 75.9064 14.9 76.8664 14.9C77.3464 14.9 77.8064 14.945 78.2464 15.035C78.6864 15.115 79.0364 15.205 79.2964 15.305L78.9064 17.045C78.6464 16.955 78.3614 16.875 78.0514 16.805C77.7514 16.735 77.4114 16.7 77.0314 16.7C76.3314 16.7 75.9814 16.895 75.9814 17.285C75.9814 17.375 75.9964 17.455 76.0264 17.525C76.0564 17.595 76.1164 17.665 76.2064 17.735C76.2964 17.795 76.4164 17.865 76.5664 17.945C76.7264 18.015 76.9264 18.095 77.1664 18.185C77.6564 18.365 78.0614 18.545 78.3814 18.725C78.7014 18.895 78.9514 19.085 79.1314 19.295C79.3214 19.495 79.4514 19.72 79.5214 19.97C79.6014 20.22 79.6414 20.51 79.6414 20.84C79.6414 21.62 79.3464 22.21 78.7564 22.61C78.1764 23.01 77.3514 23.21 76.2814 23.21C75.5814 23.21 74.9964 23.15 74.5264 23.03C74.0664 22.91 73.7464 22.81 73.5664 22.73L73.9414 20.915C74.3214 21.065 74.7114 21.185 75.1114 21.275C75.5114 21.355 75.9064 21.395 76.2964 21.395ZM81.3117 23V11.72L83.5467 11.36V15.14C83.6967 15.09 83.8867 15.045 84.1167 15.005C84.3567 14.955 84.5867 14.93 84.8067 14.93C85.4467 14.93 85.9767 15.02 86.3967 15.2C86.8267 15.37 87.1667 15.615 87.4167 15.935C87.6767 16.255 87.8567 16.635 87.9567 17.075C88.0667 17.515 88.1217 18.005 88.1217 18.545V23H85.8867V18.815C85.8867 18.095 85.7917 17.585 85.6017 17.285C85.4217 16.985 85.0817 16.835 84.5817 16.835C84.3817 16.835 84.1917 16.855 84.0117 16.895C83.8417 16.925 83.6867 16.96 83.5467 17V23H81.3117Z" fill="white"/>
<path d="M126.65 12.35C125.2 10.9 123.21 10 121 10C116.58 10 113.01 13.58 113.01 18C113.01 22.42 116.58 26 121 26C124.73 26 127.84 23.45 128.73 20H126.65C125.83 22.33 123.61 24 121 24C117.69 24 115 21.31 115 18C115 14.69 117.69 12 121 12C122.66 12 124.14 12.69 125.22 13.78L122 17H129V10L126.65 12.35Z" fill="white"/>
<defs>
<filter id="filter0_d" x="0" y="0" width="157" height="43" filterUnits="userSpaceOnUse" color-interpolation-filters="sRGB">
<feFlood flood-opacity="0" result="BackgroundImageFix"/>
<feColorMatrix in="SourceAlpha" type="matrix" values="0 0 0 0 0 0 0 0 0 0 0 0 0 0 0 0 0 0 127 0"/>
<feOffset dy="4"/>
<feGaussianBlur stdDeviation="2"/>
<feColorMatrix type="matrix" values="0 0 0 0 0 0 0 0 0 0 0 0 0 0 0 0 0 0 0.25 0"/>
<feBlend mode="normal" in2="BackgroundImageFix" result="effect1_dropShadow"/>
<feBlend mode="normal" in="SourceGraphic" in2="effect1_dropShadow" result="shape"/>
</filter>
</defs>
</svg>
