<svg width="40" height="40" viewBox="0 0 40 40" fill="none" xmlns="http://www.w3.org/2000/svg">
<circle cx="20" cy="20" r="20" fill="#FF4040"/>
<g clip-path="url(#clip0)">
<path d="M27.1317 13.6346C26.94 13.0692 26.4033 12.6667 25.7708 12.6667H15.2292C14.5967 12.6667 14.0696 13.0692 13.8683 13.6346L11.875 19.375V27.0417C11.875 27.5688 12.3062 28 12.8333 28H13.7917C14.3187 28 14.75 27.5688 14.75 27.0417V26.0834H26.25V27.0417C26.25 27.5688 26.6812 28 27.2083 28H28.1667C28.6937 28 29.125 27.5688 29.125 27.0417V19.375L27.1317 13.6346ZM15.2292 23.2084C14.4337 23.2084 13.7917 22.5663 13.7917 21.7709C13.7917 20.9754 14.4337 20.3334 15.2292 20.3334C16.0246 20.3334 16.6667 20.9754 16.6667 21.7709C16.6667 22.5663 16.0246 23.2084 15.2292 23.2084ZM25.7708 23.2084C24.9754 23.2084 24.3333 22.5663 24.3333 21.7709C24.3333 20.9754 24.9754 20.3334 25.7708 20.3334C26.5662 20.3334 27.2083 20.9754 27.2083 21.7709C27.2083 22.5663 26.5662 23.2084 25.7708 23.2084ZM13.7917 18.4167L15.2292 14.1042H25.7708L27.2083 18.4167H13.7917Z" fill="white"/>
</g>
<defs>
<clipPath id="clip0">
<rect x="9" y="5" width="23" height="23" fill="white"/>
</clipPath>
</defs>
</svg>
