<svg width="35" height="35" viewBox="0 0 35 35" fill="none" xmlns="http://www.w3.org/2000/svg">
<circle cx="17.5" cy="17.5" r="17.5" fill="#FF4040"/>
<path d="M23.417 7H11.7503C10.6003 7 9.66699 7.93333 9.66699 9.08333V24.9167C9.66699 26.0667 10.6003 27 11.7503 27H23.417C24.567 27 25.5003 26.0667 25.5003 24.9167V9.08333C25.5003 7.93333 24.567 7 23.417 7ZM17.5837 26.1667C16.892 26.1667 16.3337 25.6083 16.3337 24.9167C16.3337 24.225 16.892 23.6667 17.5837 23.6667C18.2753 23.6667 18.8337 24.225 18.8337 24.9167C18.8337 25.6083 18.2753 26.1667 17.5837 26.1667ZM23.8337 22.8333H11.3337V9.5H23.8337V22.8333Z" fill="white"/>
</svg>
